<svg width="1400" height="1000" viewBox="0 0 1400 1000" fill="none" xmlns="http://www.w3.org/2000/svg">
  <defs>
    <linearGradient id="bg" x1="0" y1="0" x2="1400" y2="1000" gradientUnits="userSpaceOnUse">
      <stop stop-color="#0D1727"/>
      <stop offset="1" stop-color="#101E32"/>
    </linearGradient>
    <linearGradient id="field" x1="120" y1="120" x2="1260" y2="880" gradientUnits="userSpaceOnUse">
      <stop stop-color="#10243E"/>
      <stop offset="1" stop-color="#0A1627"/>
    </linearGradient>
    <linearGradient id="path" x1="0" y1="0" x2="1400" y2="1000" gradientUnits="userSpaceOnUse">
      <stop stop-color="#4AA7FF" stop-opacity="0.38"/>
      <stop offset="1" stop-color="#72F0C6" stop-opacity="0.24"/>
    </linearGradient>
    <pattern id="grid" width="60" height="60" patternUnits="userSpaceOnUse">
      <path d="M 60 0 L 0 0 0 60" fill="none" stroke="#DCEBFF" stroke-opacity="0.05" stroke-width="1"/>
    </pattern>
  </defs>
  <rect width="1400" height="1000" fill="url(#bg)"/>
  <rect x="60" y="60" width="1280" height="880" rx="34" fill="url(#field)" stroke="#DCEBFF" stroke-opacity="0.12"/>
  <rect x="60" y="60" width="1280" height="880" rx="34" fill="url(#grid)"/>

  <path d="M180 850 C 320 760, 430 710, 610 630 C 740 570, 860 520, 1010 430 C 1120 370, 1210 290, 1260 210" stroke="url(#path)" stroke-width="20" stroke-linecap="round" fill="none" opacity="0.9"/>
  <path d="M280 240 C 410 260, 530 300, 650 340 C 780 380, 930 420, 1100 470" stroke="url(#path)" stroke-width="14" stroke-linecap="round" fill="none" opacity="0.5"/>

  <g>
    <rect x="150" y="790" width="160" height="90" rx="16" fill="#18314E" stroke="#DCEBFF" stroke-opacity="0.14"/>
    <text x="168" y="825" fill="#EAF2FF" font-family="Arial, sans-serif" font-size="24" font-weight="700">Demo Main Gate</text>
    <text x="168" y="851" fill="#A8B7CF" font-family="Arial, sans-serif" font-size="16">Placeholder entry point</text>
  </g>

  <g>
    <rect x="210" y="190" width="220" height="150" rx="18" fill="#173554" stroke="#DCEBFF" stroke-opacity="0.14"/>
    <text x="232" y="234" fill="#EAF2FF" font-family="Arial, sans-serif" font-size="24" font-weight="700">Demo Hostel North</text>
    <text x="232" y="262" fill="#A8B7CF" font-family="Arial, sans-serif" font-size="16">Placeholder residence cluster</text>
  </g>

  <g>
    <rect x="470" y="250" width="220" height="140" rx="18" fill="#162A42" stroke="#DCEBFF" stroke-opacity="0.14"/>
    <text x="492" y="292" fill="#EAF2FF" font-family="Arial, sans-serif" font-size="24" font-weight="700">Demo Student Hub</text>
    <text x="492" y="320" fill="#A8B7CF" font-family="Arial, sans-serif" font-size="16">Demo help and orientation</text>
  </g>

  <g>
    <rect x="720" y="170" width="200" height="120" rx="18" fill="#182D49" stroke="#DCEBFF" stroke-opacity="0.14"/>
    <text x="742" y="210" fill="#EAF2FF" font-family="Arial, sans-serif" font-size="24" font-weight="700">Demo ICT</text>
    <text x="742" y="238" fill="#A8B7CF" font-family="Arial, sans-serif" font-size="16">Technology support</text>
  </g>

  <g>
    <rect x="700" y="220" width="220" height="220" rx="24" fill="#15324D" stroke="#DCEBFF" stroke-opacity="0.14"/>
    <text x="732" y="284" fill="#EAF2FF" font-family="Arial, sans-serif" font-size="28" font-weight="700">Demo Library</text>
    <text x="732" y="318" fill="#A8B7CF" font-family="Arial, sans-serif" font-size="18">Study and reading space</text>
  </g>

  <g>
    <rect x="980" y="360" width="220" height="160" rx="20" fill="#173554" stroke="#DCEBFF" stroke-opacity="0.14"/>
    <text x="1002" y="404" fill="#EAF2FF" font-family="Arial, sans-serif" font-size="24" font-weight="700">Lecture Block A</text>
    <text x="1002" y="432" fill="#A8B7CF" font-family="Arial, sans-serif" font-size="16">Placeholder classroom block</text>
  </g>

  <g>
    <rect x="790" y="650" width="260" height="120" rx="20" fill="#182A3F" stroke="#DCEBFF" stroke-opacity="0.14"/>
    <text x="814" y="692" fill="#EAF2FF" font-family="Arial, sans-serif" font-size="24" font-weight="700">Demo Cafeteria Row</text>
    <text x="814" y="720" fill="#A8B7CF" font-family="Arial, sans-serif" font-size="16">Food and refreshment zone</text>
  </g>

  <g>
    <rect x="300" y="600" width="220" height="150" rx="20" fill="#17314C" stroke="#DCEBFF" stroke-opacity="0.14"/>
    <text x="322" y="642" fill="#EAF2FF" font-family="Arial, sans-serif" font-size="24" font-weight="700">Demo Health Centre</text>
    <text x="322" y="670" fill="#A8B7CF" font-family="Arial, sans-serif" font-size="16">Placeholder wellness support</text>
  </g>

  <g>
    <rect x="120" y="650" width="120" height="90" rx="16" fill="#4C1D2E" stroke="#DCEBFF" stroke-opacity="0.14"/>
    <text x="138" y="684" fill="#FFEAF0" font-family="Arial, sans-serif" font-size="20" font-weight="700">Security</text>
    <text x="138" y="708" fill="#F5B3C0" font-family="Arial, sans-serif" font-size="14">Post</text>
  </g>

  <text x="78" y="112" fill="#72F0C6" font-family="Arial, sans-serif" font-size="24" font-weight="700">TSU Campus Guide demo layout</text>
  <text x="78" y="144" fill="#A8B7CF" font-family="Arial, sans-serif" font-size="16">Placeholder map. Replace with verified TSU survey data.</text>
</svg>
